[b]General[/b]
[color=green]Complete name                  : Waka Flocka Ft. Trey Songz I Don't Really Care 720pHD {ECS}.mp4
Format                         : MPEG-4
Format profile                 : Base Media
Codec ID                       : isom
File size                      : 45.1 MiB
Duration                       : 4mn 36s
Overall bit rate               : 1 368 Kbps
Encoded date                   : UTC 2012-07-14 19:39:35
Tagged date                    : UTC 2012-07-14 19:39:35

Video
ID                             : 1
Format                         : AVC
Format/Info                    : Advanced Video Codec
Format profile                 : High@L3.1
Format settings, CABAC         : Yes
Format settings, ReFrames      : 5 frames
Codec ID                       : avc1
Codec ID/Info                  : Advanced Video Coding
Duration                       : 4mn 36s
Bit rate                       : 979 Kbps
Maximum bit rate               : 1 862 Kbps
Width                          : 1 280 pixels
Height                         : 384 pixels
Display aspect ratio           : 3.333
Frame rate mode                : Constant
Frame rate                     : 23.976 fps
Color space                    : YUV
Chroma subsampling             : 4:2:0
Bit depth                      : 8 bits
Scan type                      : Progressive
Bits/(Pixel*Frame)             : 0.083
Stream size                    : 32.3 MiB (72%)
Writing library                : x264 core 125 r2200 999b753

Encoded date                   : UTC 2012-07-14 19:39:35
Tagged date                    : UTC 2012-07-14 19:39:36

Audio
ID                             : 2
Format                         : AC-3
Format/Info                    : Audio Coding 3
Mode extension                 : CM (complete main)
Format settings, Endianness    : Big
Codec ID                       : ac-3
Duration                       : 4mn 36s
Bit rate mode                  : Constant
Bit rate                       : 384 Kbps
Channel(s)                     : 2 channels
Channel positions              : Front: L R
Sampling rate                  : 44.1 KHz
Bit depth                      : 16 bits
Compression mode               : Lossy
Stream size                    : 12.7 MiB (28%)
Encoded date                   : UTC 2012-07-14 19:39:36
Tagged date                    : UTC 2012-07-14 19:39:36[/color]